<svg width="1000" height="1000" viewBox="0 0 1000 1000" fill="none" xmlns="http://www.w3.org/2000/svg">
<rect width="1000" height="1000" fill="none"/>
<g id="dachsund">
<path id="front" d="M702.013 387C671.864 388.077 678.531 394.412 664.467 416.286C656.51 426.159 652.826 447.291 648.45 458.639C646.271 460.363 644.536 462.345 643.188 464.526C638.476 466.346 634.336 469.828 630.84 475.152C629.822 475.363 628.866 475.608 627.968 475.882C601.341 479.695 576.129 503.552 563.587 532.526C552.947 557.105 573.506 587.635 627.485 587.635C660.144 583.284 703.478 552.096 701.433 525.854C701.626 521.306 701.658 517.054 701.52 513.112C702.807 497.928 700.874 479.983 704.507 469.149C705.569 461.958 704.534 454.348 702.177 447.089C703.548 447.321 704.882 447.483 706.167 447.562C712.516 452.445 727.218 439.677 732.858 443.203C767.035 443.515 759.308 438.094 765.924 432.182C779.147 420.366 756.006 420.376 738.373 409.043C735.826 406.579 733.482 404.715 731.323 403.354C725.899 393.623 715.077 387 702.013 387Z" fill="black"/>
<path id="ear" d="M668.283 445.42C668.776 449.363 690.539 466.361 705.756 466.361C714.588 463.053 717.892 454.235 712.383 434.396C707.18 415.659 698.053 405.738 682.622 407.944C670.498 412.353 666.078 427.785 668.283 445.42Z" fill="black"/>
<path id="tail" d="M294.298 563.975C288.782 583.829 236.438 583.428 239.183 587.136C238.063 593.721 303.087 601.434 309.724 563.978C311.854 549.41 309.437 524.725 306.692 521.017C290.987 523.21 298.702 555.173 294.298 563.975Z" fill="black"/>
<path id="rightfrontleg" d="M641.321 563.622C663.335 537.17 649.01 526.15 633.595 528.352C628.084 530.556 618.164 541.578 614.858 552.6C615.783 565.548 617.475 583.927 627.121 594.064C628.038 597.637 630.285 601.459 634.686 602.112C641.99 602.112 657.174 601.89 657.831 601.005C661.127 596.569 648.664 585.59 641.352 585.538C641.682 579.519 641.321 571.904 641.321 563.622Z" fill="black"/>
<path id="rightrearleg" d="M340.624 512.461C308.665 515.767 308.665 520.537 308.665 540.016C308.665 543.449 309.15 546.768 310.035 549.906C309.388 549.825 308.703 549.782 307.978 549.782C302.719 551.51 292.999 554.405 299.766 565.39C307.006 577.144 311.503 588.129 315.344 593.741C315.3 594.541 315.279 595.382 315.279 596.26C315.279 601.77 314.177 603.975 329.607 603.975C337.52 603.975 342.833 603.975 343.936 601.771C343.936 597.51 335.118 587.411 326.301 585.207C326.147 585.149 325.995 585.095 325.845 585.042C325.271 581.343 324.398 576.267 323.265 569.241C328.406 573.056 334.451 575.285 340.624 575.285C358.263 574.183 364.876 565.365 377 535.606C373.698 515.767 357.059 512.461 340.624 512.461Z" fill="black"/>
<path id="rear" d="M300 532.825C300 554.612 327.792 568.987 364.802 568.987C452.707 595.288 470.297 567.891 473.58 532.825C478.194 483.515 445.007 486.312 364.802 493.376C327.464 496.664 300 507.621 300 532.825Z" fill="black"/>
<path id="body" d="M642 499.461C642 493.938 637.506 489.461 631.983 489.461C550.823 489.461 501.177 489.461 420.017 489.461C414.494 489.461 410 493.938 410 499.461V569.461C410 574.984 414.477 579.461 420 579.461H632C637.523 579.461 642 574.984 642 569.461V499.461Z" fill="black"/>
<path id="leftfrontleg" d="M656.025 545.192C653.081 539.013 645.454 536.759 637.82 537.647L637.08 537.743L636.962 537.759L636.851 537.804C633.853 539.003 629.864 542.474 626.251 546.92C622.613 551.398 619.229 557.023 617.528 562.693L617.475 562.869L617.488 563.051C618.038 570.762 618.866 580.51 621.518 589.308C623.514 595.932 626.578 602.124 631.425 606.502C632.603 609.366 634.753 611.967 638.311 612.495C645.616 612.495 660.799 612.273 661.456 611.388C664.605 607.148 653.362 596.932 645.977 595.989C646.307 589.987 645.96 582.421 645.95 574.358C656.791 561.232 659.034 551.51 656.025 545.192ZM635.856 539.407C635.97 539.341 636.084 539.279 636.196 539.218C636.084 539.279 635.97 539.341 635.856 539.407ZM636.247 539.191C636.344 539.14 636.439 539.09 636.533 539.044C636.438 539.09 636.344 539.14 636.247 539.191ZM637.223 538.733C637.014 538.817 636.798 538.913 636.577 539.022C636.707 538.958 636.834 538.898 636.96 538.842L637.222 538.733C637.463 538.699 637.704 538.667 637.944 538.639C637.704 538.667 637.464 538.699 637.223 538.733Z" fill="black"/>
<path id="leftrearleg" d="M340.556 520.977C308.597 524.283 308.597 529.052 308.597 548.531C308.597 551.594 308.983 554.565 309.693 557.398C303.921 559.368 293.442 563.748 299.698 573.903C306.938 585.655 311.433 596.639 315.273 602.252C315.229 603.053 315.209 603.896 315.209 604.775C315.209 610.286 314.107 612.49 329.537 612.49C337.45 612.49 342.763 612.49 343.865 610.286C343.865 606.025 335.048 595.927 326.23 593.723C326.078 593.665 325.926 593.611 325.777 593.559C325.203 589.86 324.331 584.784 323.197 577.758C328.339 581.572 334.383 583.801 340.556 583.801C358.195 582.699 364.808 573.881 376.932 544.122C373.629 524.283 356.991 520.977 340.556 520.977Z" fill="black"/>
<path id="eye" d="M718.565 404.53C718.114 406.124 719.471 407.904 721.597 408.505C723.722 409.107 727.37 410.139 726.262 406.708C725.708 404.993 725.018 403.758 723.231 402.732C719.654 400.681 719.016 402.935 718.565 404.53Z" fill="white"/>
</g>
</svg>
