<svg width="512" height="512" viewBox="0 0 512 512" fill="none" xmlns="http://www.w3.org/2000/svg">
<rect width="512" height="512" fill="white"/>
<path d="M256 140V236" stroke="#7C3AED" stroke-width="14" stroke-linecap="round"/>
<path d="M256 372V276" stroke="#7C3AED" stroke-width="14" stroke-linecap="round"/>
<path d="M140 256H236" stroke="#7C3AED" stroke-width="14" stroke-linecap="round"/>
<path d="M372 256H276" stroke="#7C3AED" stroke-width="14" stroke-linecap="round"/>
<path d="M272 226H240C232.268 226 226 232.268 226 240V272C226 279.732 232.268 286 240 286H272C279.732 286 286 279.732 286 272V240C286 232.268 279.732 226 272 226Z" fill="#4F46E5"/>
<path d="M256 140C267.046 140 276 131.046 276 120C276 108.954 267.046 100 256 100C244.954 100 236 108.954 236 120C236 131.046 244.954 140 256 140Z" fill="#34D399"/>
<path d="M256 412C267.046 412 276 403.046 276 392C276 380.954 267.046 372 256 372C244.954 372 236 380.954 236 392C236 403.046 244.954 412 256 412Z" fill="#34D399"/>
<path d="M120 276C131.046 276 140 267.046 140 256C140 244.954 131.046 236 120 236C108.954 236 100 244.954 100 256C100 267.046 108.954 276 120 276Z" fill="#34D399"/>
<path d="M392 276C403.046 276 412 267.046 412 256C412 244.954 403.046 236 392 236C380.954 236 372 244.954 372 256C372 267.046 380.954 276 392 276Z" fill="#34D399"/>
</svg>
